<?xml version="1.0" standalone="no"?>
<!DOCTYPE svg PUBLIC "-//W3C//DTD SVG 20010904//EN"
 "http://www.w3.org/TR/2001/REC-SVG-20010904/DTD/svg10.dtd">
<svg version="1.0" xmlns="http://www.w3.org/2000/svg"
 width="256.000000pt" height="256.000000pt" viewBox="0 0 256.000000 256.000000"
 preserveAspectRatio="xMidYMid meet">
<metadata>
Created by potrace 1.14, written by Peter Selinger 2001-2017
</metadata>
<g transform="translate(0.000000,256.000000) scale(0.100000,-0.100000)"
fill="#000000" stroke="none">
<path d="M1215 2363 c-105 -14 -219 -69 -287 -140 -68 -71 -126 -188 -140
-281 -3 -21 -8 -23 -98 -26 -158 -6 -254 -50 -342 -160 -56 -70 -77 -125 -85
-227 -10 -134 30 -279 119 -433 50 -85 105 -146 170 -188 48 -31 48 -32 48
-86 0 -43 5 -60 25 -84 37 -44 35 -134 -6 -236 -39 -99 -35 -142 27 -244 41
-67 44 -77 39 -120 -5 -38 -3 -48 9 -48 15 0 20 10 31 65 4 24 -2 41 -27 79
-69 103 -71 108 -72 160 0 34 9 71 27 111 21 48 27 75 27 137 0 75 1 78 29 93
38 19 47 48 31 96 -7 22 -11 40 -9 42 2 1 30 19 61 40 71 46 146 138 194 240
21 42 39 77 42 77 2 0 22 -15 45 -34 23 -18 61 -43 84 -55 23 -11 44 -25 47
-29 3 -5 1 -37 -5 -71 -13 -71 -5 -88 44 -93 28 -3 33 -8 38 -38 3 -19 22 -65
42 -101 24 -43 37 -79 37 -103 l0 -38 -35 31 c-42 36 -38 35 -76 16 -78 -41
-43 -145 48 -145 18 0 33 -4 33 -8 0 -5 -22 -31 -50 -59 -67 -68 -65 -108 10
-217 45 -66 48 -96 15 -151 -28 -48 -28 -60 -2 -50 17 7 57 93 57 123 0 10
-19 48 -41 83 -53 81 -71 123 -62 146 4 10 28 38 53 63 38 38 48 55 58 105 26
123 27 116 -22 218 -53 109 -56 127 -22 127 39 0 47 20 40 97 l-7 70 54 30
c30 17 75 52 100 77 l46 47 46 -74 c55 -88 142 -177 198 -202 l40 -18 -8 -46
c-12 -78 -10 -95 12 -99 28 -6 35 -20 35 -75 0 -32 8 -64 25 -95 36 -68 33
-100 -15 -158 -44 -53 -55 -82 -47 -117 3 -12 11 -43 17 -69 8 -33 24 -59 53
-88 23 -22 45 -40 49 -40 16 0 7 -37 -17 -70 -14 -19 -25 -40 -25 -48 0 -27
25 -5 53 46 l28 52 -55 58 c-31 33 -56 62 -56 66 0 5 11 5 25 2 19 -5 33 1 62
27 35 33 36 36 24 65 -14 32 -60 58 -86 48 -9 -3 -22 -20 -29 -38 -14 -31 -14
-32 -18 -8 -4 31 7 53 55 111 43 54 49 107 18 161 -11 18 -22 54 -26 80 -6 39
-4 49 14 67 12 12 28 21 36 21 27 0 34 31 18 84 -17 57 -20 52 73 110 124 78
262 339 285 544 24 211 -67 385 -248 474 -64 31 -74 33 -173 33 -58 0 -121 -3
-141 -8 l-36 -7 -39 66 c-97 167 -296 263 -489 237z m-461 -493 c21 -7 26 -16
26 -41 0 -49 29 -197 52 -264 22 -66 110 -239 134 -262 27 -27 26 -57 -6 -122
-42 -85 -77 -136 -138 -195 -62 -60 -109 -79 -181 -70 -46 5 -61 12 -104 52
-76 72 -159 205 -197 319 -29 86 -33 112 -34 208 -1 98 2 115 23 155 37 70 62
99 126 148 86 66 226 100 299 72z m-59 -1017 c4 -10 11 -33 15 -51 7 -29 5
-33 -17 -38 -13 -4 -28 -3 -32 2 -10 11 -20 75 -14 92 7 18 40 15 48 -5z m623
-175 c17 -17 15 -63 -3 -78 -38 -32 -100 24 -76 69 13 23 59 29 79 9z m652
-311 c0 -31 -18 -47 -53 -47 -27 0 -28 2 -22 33 4 17 14 37 22 44 22 17 53 -1
53 -30z"/>
</g>
</svg>
